<svg width="365" height="262" viewBox="0 0 365 262" fill="none" xmlns="http://www.w3.org/2000/svg">
<g filter="url(#filter0_d_9_2)">
<path d="M279.367 48.4205C284.89 48.4205 289.367 52.8978 289.367 58.4205V234.473C289.367 239.996 284.89 244.473 279.367 244.473H18C12.4773 244.473 8.00026 239.996 8 234.473V58.4205C8.0002 52.8978 12.4773 48.4205 18 48.4205H279.367ZM68.8682 91.023C64.7262 91.0232 61.3682 94.381 61.3682 98.523V106.953H55.0137C48.9856 106.953 43.4556 109.714 39.5576 114.196C35.6884 118.644 33.6582 124.479 33.6582 130.381C33.6582 136.283 35.6884 142.119 39.5576 146.567C43.4556 151.048 48.9856 153.811 55.0137 153.811H61.3682V170.669H41.1582C37.0161 170.669 33.6582 174.027 33.6582 178.169C33.6584 182.311 37.0162 185.669 41.1582 185.669H61.3682V194.098C61.3682 198.24 64.7262 201.598 68.8682 201.598C73.0101 201.598 76.3681 198.24 76.3682 194.098V185.669H82.7236C88.7516 185.669 94.2818 182.907 98.1797 178.425C102.049 173.977 104.079 168.142 104.079 162.24C104.079 156.338 102.049 150.503 98.1797 146.054C94.2818 141.573 88.7516 138.811 82.7236 138.811H76.3682V121.953H96.5791C100.721 121.952 104.079 118.594 104.079 114.453C104.079 110.311 100.721 106.953 96.5791 106.953H76.3682V98.523C76.3682 94.381 73.0101 91.0233 68.8682 91.023ZM128.789 181.969C124.647 181.969 121.289 185.327 121.289 189.469C121.289 193.611 124.647 196.969 128.789 196.969H146.789C150.931 196.969 154.289 193.611 154.289 189.469C154.289 185.327 150.931 181.97 146.789 181.969H128.789ZM82.7236 153.811C84.0446 153.811 85.5638 154.405 86.8623 155.898C88.1897 157.424 89.0791 159.693 89.0791 162.24C89.0791 164.787 88.1897 167.055 86.8623 168.582C85.5638 170.075 84.0446 170.669 82.7236 170.669H76.3682V153.811H82.7236ZM128.789 138.402C124.647 138.402 121.289 141.76 121.289 145.902C121.289 150.044 124.647 153.402 128.789 153.402H168.579C172.721 153.401 176.079 150.044 176.079 145.902C176.079 141.76 172.721 138.402 168.579 138.402H128.789ZM61.3682 121.953V138.811H55.0137C53.6927 138.811 52.1736 138.216 50.875 136.723C49.5475 135.197 48.6582 132.929 48.6582 130.381C48.6582 127.834 49.5475 125.566 50.875 124.04C52.1736 122.547 53.6927 121.953 55.0137 121.953H61.3682ZM128.789 94.8355C124.647 94.8357 121.289 98.1935 121.289 102.336C121.289 106.477 124.647 109.835 128.789 109.836H189.421C193.563 109.835 196.921 106.477 196.921 102.336C196.921 98.1936 193.563 94.8359 189.421 94.8355H128.789Z" fill="#FFE100"/>
<path d="M289.367 58.4205H291.867V58.4204L289.367 58.4205ZM289.367 234.473L291.867 234.473V234.473H289.367ZM18 244.473L18 246.973H18V244.473ZM8 234.473H5.5V234.473L8 234.473ZM8 58.4205L5.5 58.4204V58.4205H8ZM18 48.4205V45.9205V48.4205ZM68.8682 91.023L68.8683 88.523H68.868L68.8682 91.023ZM61.3682 106.953V109.453H63.8682V106.953H61.3682ZM39.5576 114.196L37.6713 112.555L37.6713 112.555L39.5576 114.196ZM33.6582 130.381H31.1582H33.6582ZM39.5576 146.567L37.6713 148.208L37.6713 148.208L39.5576 146.567ZM61.3682 153.811H63.8682V151.311H61.3682V153.811ZM61.3682 170.669V173.169H63.8682V170.669H61.3682ZM33.6582 178.169H31.1582V178.17L33.6582 178.169ZM61.3682 185.669H63.8682V183.169H61.3682V185.669ZM61.3682 194.098H58.8682V194.098L61.3682 194.098ZM68.8682 201.598L68.868 204.098H68.8683L68.8682 201.598ZM76.3682 194.098L78.8682 194.098V194.098H76.3682ZM76.3682 185.669V183.169H73.8682V185.669H76.3682ZM82.7236 185.669V188.169H82.7237L82.7236 185.669ZM98.1797 178.425L100.066 180.066L100.066 180.066L98.1797 178.425ZM104.079 162.24H106.579V162.24L104.079 162.24ZM98.1797 146.054L100.066 144.414L100.066 144.414L98.1797 146.054ZM82.7236 138.811L82.7237 136.311H82.7236V138.811ZM76.3682 138.811H73.8682V141.311H76.3682V138.811ZM76.3682 121.953V119.453H73.8682V121.953H76.3682ZM96.5791 121.953V124.453H96.5793L96.5791 121.953ZM104.079 114.453L106.579 114.453V114.453H104.079ZM96.5791 106.953L96.5793 104.453H96.5791V106.953ZM76.3682 106.953H73.8682V109.453H76.3682V106.953ZM128.789 181.969V179.469H128.789L128.789 181.969ZM121.289 189.469H118.789V189.469L121.289 189.469ZM128.789 196.969L128.789 199.469H128.789V196.969ZM146.789 196.969V199.469H146.789L146.789 196.969ZM154.289 189.469L156.789 189.469V189.469H154.289ZM146.789 181.969L146.789 179.469H146.789V181.969ZM82.7236 153.811L82.7239 151.311H82.7236V153.811ZM86.8623 155.898L88.7487 154.257L88.7486 154.257L86.8623 155.898ZM89.0791 162.24L91.5791 162.24V162.24L89.0791 162.24ZM86.8623 168.582L88.7486 170.222L88.7487 170.222L86.8623 168.582ZM82.7236 170.669V173.169H82.7239L82.7236 170.669ZM76.3682 170.669H73.8682V173.169H76.3682V170.669ZM76.3682 153.811V151.311H73.8682V153.811H76.3682ZM128.789 138.402V135.902H128.789L128.789 138.402ZM121.289 145.902L118.789 145.902V145.902L121.289 145.902ZM128.789 153.402L128.789 155.902H128.789V153.402ZM168.579 153.402V155.902H168.579L168.579 153.402ZM176.079 145.902L178.579 145.902V145.902L176.079 145.902ZM168.579 138.402L168.579 135.902H168.579V138.402ZM61.3682 121.953H63.8682V119.453H61.3682V121.953ZM61.3682 138.811V141.311H63.8682V138.811H61.3682ZM50.875 136.723L48.9887 138.364L48.9888 138.364L50.875 136.723ZM48.6582 130.381L46.1582 130.381V130.381L48.6582 130.381ZM50.875 124.04L48.9888 122.399L48.9887 122.399L50.875 124.04ZM128.789 94.8355V92.3355H128.789L128.789 94.8355ZM121.289 102.336H118.789V102.336L121.289 102.336ZM128.789 109.836L128.789 112.336H128.789V109.836ZM189.421 109.836V112.336H189.421L189.421 109.836ZM196.921 102.336L199.421 102.336V102.336H196.921ZM189.421 94.8355L189.421 92.3355H189.421V94.8355ZM279.367 48.4205V50.9205C283.509 50.9205 286.867 54.2784 286.867 58.4206L289.367 58.4205L291.867 58.4204C291.867 51.5172 286.271 45.9205 279.367 45.9205V48.4205ZM289.367 58.4205H286.867V234.473H289.367H291.867V58.4205H289.367ZM289.367 234.473L286.867 234.473C286.867 238.615 283.509 241.973 279.367 241.973V244.473V246.973C286.271 246.973 291.867 241.376 291.867 234.473L289.367 234.473ZM279.367 244.473V241.973H18V244.473V246.973H279.367V244.473ZM18 244.473L18 241.973C13.8581 241.973 10.5002 238.615 10.5 234.473L8 234.473L5.5 234.473C5.50033 241.376 11.0965 246.973 18 246.973L18 244.473ZM8 234.473H10.5V58.4205H8H5.5V234.473H8ZM8 58.4205L10.5 58.4206C10.5001 54.2784 13.8581 50.9205 18 50.9205V48.4205V45.9205C11.0965 45.9205 5.50025 51.5172 5.5 58.4204L8 58.4205ZM18 48.4205V50.9205H279.367V48.4205V45.9205H18V48.4205ZM68.8682 91.023L68.868 88.523C63.3456 88.5233 58.8682 93.0002 58.8682 98.523H61.3682H63.8682C63.8682 95.7619 66.1068 93.5232 68.8683 93.523L68.8682 91.023ZM61.3682 98.523H58.8682V106.953H61.3682H63.8682V98.523H61.3682ZM61.3682 106.953V104.453H55.0137V106.953V109.453H61.3682V106.953ZM55.0137 106.953V104.453C48.1995 104.453 42.0015 107.577 37.6713 112.555L39.5576 114.196L41.4439 115.837C44.9098 111.852 49.7716 109.453 55.0137 109.453V106.953ZM39.5576 114.196L37.6713 112.555C33.3781 117.491 31.1582 123.921 31.1582 130.381H33.6582H36.1582C36.1582 125.038 37.9987 119.798 41.4439 115.837L39.5576 114.196ZM33.6582 130.381H31.1582C31.1582 136.842 33.3781 143.272 37.6713 148.208L39.5576 146.567L41.4439 144.926C37.9987 140.965 36.1582 135.725 36.1582 130.381H33.6582ZM39.5576 146.567L37.6713 148.208C42.0013 153.186 48.1993 156.311 55.0137 156.311V153.811V151.311C49.7719 151.311 44.91 148.911 41.4439 144.926L39.5576 146.567ZM55.0137 153.811V156.311H61.3682V153.811V151.311H55.0137V153.811ZM61.3682 153.811H58.8682V170.669H61.3682H63.8682V153.811H61.3682ZM61.3682 170.669V168.169H41.1582V170.669V173.169H61.3682V170.669ZM41.1582 170.669V168.169C35.6354 168.169 31.1582 172.647 31.1582 178.169H33.6582H36.1582C36.1582 175.408 38.3968 173.169 41.1582 173.169V170.669ZM33.6582 178.169L31.1582 178.17C31.1585 183.692 35.6354 188.169 41.1582 188.169V185.669V183.169C38.3971 183.169 36.1584 180.931 36.1582 178.169L33.6582 178.169ZM41.1582 185.669V188.169H61.3682V185.669V183.169H41.1582V185.669ZM61.3682 185.669H58.8682V194.098H61.3682H63.8682V185.669H61.3682ZM61.3682 194.098L58.8682 194.098C58.8682 199.621 63.3456 204.098 68.868 204.098L68.8682 201.598L68.8683 199.098C66.1068 199.098 63.8682 196.859 63.8682 194.098L61.3682 194.098ZM68.8682 201.598L68.8683 204.098C74.3907 204.098 78.8681 199.621 78.8682 194.098L76.3682 194.098L73.8682 194.098C73.8682 196.859 71.6295 199.098 68.868 199.098L68.8682 201.598ZM76.3682 194.098H78.8682V185.669H76.3682H73.8682V194.098H76.3682ZM76.3682 185.669V188.169H82.7236V185.669V183.169H76.3682V185.669ZM82.7236 185.669L82.7237 188.169C89.5379 188.169 95.7361 185.044 100.066 180.066L98.1797 178.425L96.2934 176.785C92.8275 180.769 87.9654 183.169 82.7236 183.169L82.7236 185.669ZM98.1797 178.425L100.066 180.066C104.359 175.13 106.579 168.7 106.579 162.24H104.079H101.579C101.579 167.583 99.7385 172.824 96.2934 176.785L98.1797 178.425ZM104.079 162.24L106.579 162.24C106.579 155.779 104.359 149.349 100.066 144.414L98.1797 146.054L96.2934 147.695C99.7385 151.656 101.579 156.896 101.579 162.24L104.079 162.24ZM98.1797 146.054L100.066 144.414C95.7359 139.435 89.5376 136.311 82.7237 136.311L82.7236 138.811L82.7236 141.311C87.9657 141.311 92.8277 143.71 96.2934 147.695L98.1797 146.054ZM82.7236 138.811V136.311H76.3682V138.811V141.311H82.7236V138.811ZM76.3682 138.811H78.8682V121.953H76.3682H73.8682V138.811H76.3682ZM76.3682 121.953V124.453H96.5791V121.953V119.453H76.3682V121.953ZM96.5791 121.953L96.5793 124.453C102.102 124.452 106.579 119.975 106.579 114.453L104.079 114.453L101.579 114.453C101.579 117.214 99.3401 119.452 96.5789 119.453L96.5791 121.953ZM104.079 114.453H106.579C106.579 108.93 102.102 104.453 96.5793 104.453L96.5791 106.953L96.5789 109.453C99.3404 109.453 101.579 111.692 101.579 114.453H104.079ZM96.5791 106.953V104.453H76.3682V106.953V109.453H96.5791V106.953ZM76.3682 106.953H78.8682V98.523H76.3682H73.8682V106.953H76.3682ZM76.3682 98.523H78.8682C78.8682 93.0002 74.3907 88.5234 68.8683 88.523L68.8682 91.023L68.868 93.523C71.6295 93.5232 73.8682 95.7619 73.8682 98.523H76.3682ZM128.789 181.969L128.789 179.469C123.266 179.47 118.789 183.946 118.789 189.469H121.289H123.789C123.789 186.708 126.028 184.469 128.789 184.469L128.789 181.969ZM121.289 189.469L118.789 189.469C118.789 194.992 123.266 199.469 128.789 199.469L128.789 196.969L128.789 194.469C126.028 194.469 123.789 192.23 123.789 189.469L121.289 189.469ZM128.789 196.969V199.469H146.789V196.969V194.469H128.789V196.969ZM146.789 196.969L146.789 199.469C152.312 199.469 156.789 194.992 156.789 189.469L154.289 189.469L151.789 189.469C151.789 192.23 149.55 194.469 146.789 194.469L146.789 196.969ZM154.289 189.469H156.789C156.789 183.946 152.312 179.47 146.789 179.469L146.789 181.969L146.789 184.469C149.55 184.469 151.789 186.708 151.789 189.469H154.289ZM146.789 181.969V179.469H128.789V181.969V184.469H146.789V181.969ZM82.7236 153.811L82.7234 156.311C83.267 156.311 84.1157 156.55 84.976 157.539L86.8623 155.898L88.7486 154.257C87.0119 152.261 84.8222 151.311 82.7239 151.311L82.7236 153.811ZM86.8623 155.898L84.9759 157.539C85.8807 158.579 86.5791 160.253 86.5791 162.24L89.0791 162.24L91.5791 162.24C91.5791 159.132 90.4986 156.269 88.7487 154.257L86.8623 155.898ZM89.0791 162.24L86.5791 162.24C86.5791 164.226 85.8807 165.901 84.9759 166.941L86.8623 168.582L88.7487 170.222C90.4986 168.21 91.5791 165.348 91.5791 162.24L89.0791 162.24ZM86.8623 168.582L84.976 166.941C84.115 167.931 83.266 168.169 82.7234 168.169L82.7236 170.669L82.7239 173.169C84.8231 173.169 87.0126 172.218 88.7486 170.222L86.8623 168.582ZM82.7236 170.669V168.169H76.3682V170.669V173.169H82.7236V170.669ZM76.3682 170.669H78.8682V153.811H76.3682H73.8682V170.669H76.3682ZM76.3682 153.811V156.311H82.7236V153.811V151.311H76.3682V153.811ZM128.789 138.402L128.789 135.902C123.266 135.902 118.789 140.379 118.789 145.902L121.289 145.902L123.789 145.902C123.789 143.141 126.028 140.902 128.789 140.902L128.789 138.402ZM121.289 145.902L118.789 145.902C118.789 151.425 123.266 155.902 128.789 155.902L128.789 153.402L128.789 150.902C126.028 150.902 123.789 148.663 123.789 145.902L121.289 145.902ZM128.789 153.402V155.902H168.579V153.402V150.902H128.789V153.402ZM168.579 153.402L168.579 155.902C174.101 155.901 178.579 151.425 178.579 145.902L176.079 145.902L173.579 145.902C173.579 148.663 171.34 150.902 168.579 150.902L168.579 153.402ZM176.079 145.902L178.579 145.902C178.579 140.379 174.101 135.903 168.579 135.902L168.579 138.402L168.579 140.902C171.34 140.902 173.579 143.141 173.579 145.902L176.079 145.902ZM168.579 138.402V135.902H128.789V138.402V140.902H168.579V138.402ZM61.3682 121.953H58.8682V138.811H61.3682H63.8682V121.953H61.3682ZM61.3682 138.811V136.311H55.0137V138.811V141.311H61.3682V138.811ZM55.0137 138.811V136.311C54.4715 136.311 53.6226 136.073 52.7612 135.082L50.875 136.723L48.9888 138.364C50.7247 140.36 52.914 141.311 55.0137 141.311V138.811ZM50.875 136.723L52.7613 135.083C51.8565 134.042 51.1582 132.368 51.1582 130.381L48.6582 130.381L46.1582 130.381C46.1582 133.489 47.2385 136.352 48.9887 138.364L50.875 136.723ZM48.6582 130.381L51.1582 130.381C51.1582 128.395 51.8565 126.721 52.7613 125.68L50.875 124.04L48.9887 122.399C47.2385 124.411 46.1582 127.273 46.1582 130.381L48.6582 130.381ZM50.875 124.04L52.7612 125.68C53.6219 124.691 54.4705 124.453 55.0137 124.453V121.953V119.453C52.9149 119.453 50.7254 120.402 48.9888 122.399L50.875 124.04ZM55.0137 121.953V124.453H61.3682V121.953V119.453H55.0137V121.953ZM128.789 94.8355L128.789 92.3355C123.266 92.3358 118.789 96.8127 118.789 102.336H121.289H123.789C123.789 99.5743 126.028 97.3356 128.789 97.3355L128.789 94.8355ZM121.289 102.336L118.789 102.336C118.789 107.858 123.266 112.335 128.789 112.336L128.789 109.836L128.789 107.336C126.028 107.335 123.789 105.097 123.789 102.335L121.289 102.336ZM128.789 109.836V112.336H189.421V109.836V107.336H128.789V109.836ZM189.421 109.836L189.421 112.336C194.943 112.335 199.421 107.858 199.421 102.336L196.921 102.336L194.421 102.335C194.421 105.096 192.182 107.335 189.421 107.336L189.421 109.836ZM196.921 102.336H199.421C199.421 96.8127 194.943 92.336 189.421 92.3355L189.421 94.8355L189.421 97.3355C192.182 97.3357 194.421 99.5745 194.421 102.336H196.921ZM189.421 94.8355V92.3355H128.789V94.8355V97.3355H189.421V94.8355Z" fill="black"/>
</g>
<g filter="url(#filter1_d_9_2)">
<path d="M282.56 44.4732L320 74.31L282.56 44.4732Z" fill="#81C2FF"/>
<path fill-rule="evenodd" clip-rule="evenodd" d="M196.018 156.612C196.527 153.882 197.699 151.32 199.429 149.15L282.56 44.4732L320 74.31L236.73 178.892C235.002 181.058 232.769 182.766 230.228 183.867L194.897 199.131C194.195 199.432 193.425 199.537 192.668 199.436C191.911 199.334 191.196 199.029 190.598 198.554C190 198.078 189.542 197.449 189.273 196.734C189.003 196.019 188.932 195.244 189.066 194.492L196.018 156.612Z" fill="#81C2FF"/>
<path d="M282.56 44.4732L320 74.31L282.56 44.4732Z" stroke="black" stroke-width="5" stroke-linecap="round" stroke-linejoin="round"/>
<path fill-rule="evenodd" clip-rule="evenodd" d="M196.018 156.612C196.527 153.882 197.699 151.32 199.429 149.15L282.56 44.4732L320 74.31L236.73 178.892C235.002 181.058 232.769 182.766 230.228 183.867L194.897 199.131C194.195 199.432 193.425 199.537 192.668 199.436C191.911 199.334 191.196 199.029 190.598 198.554C190 198.078 189.542 197.449 189.273 196.734C189.003 196.019 188.932 195.244 189.066 194.492L196.018 156.612Z" stroke="black" stroke-width="5" stroke-linecap="round" stroke-linejoin="round"/>
</g>
<g filter="url(#filter2_d_9_2)">
<path d="M288.436 36.8522L325.821 66.6152L288.436 36.8522Z" fill="#81C2FF"/>
<path fill-rule="evenodd" clip-rule="evenodd" d="M347.017 28.6631C347.728 34.9382 345.918 41.239 341.984 46.1792L325.821 66.6152L288.436 36.8522L304.729 16.5119C308.663 11.5717 314.399 8.39658 320.674 7.68514C326.949 6.97369 333.25 8.78418 338.19 12.7183C343.13 16.6524 346.305 22.3879 347.017 28.6631Z" fill="#81C2FF"/>
<path d="M288.436 36.8522L325.821 66.6152L288.436 36.8522Z" stroke="black" stroke-width="5" stroke-linecap="round" stroke-linejoin="round"/>
<path fill-rule="evenodd" clip-rule="evenodd" d="M347.017 28.6631C347.728 34.9382 345.918 41.239 341.984 46.1792L325.821 66.6152L288.436 36.8522L304.729 16.5119C308.663 11.5717 314.399 8.39658 320.674 7.68514C326.949 6.97369 333.25 8.78418 338.19 12.7183C343.13 16.6524 346.305 22.3879 347.017 28.6631Z" stroke="black" stroke-width="5" stroke-linecap="round" stroke-linejoin="round"/>
</g>
<defs>
<filter id="filter0_d_9_2" x="0.5" y="40.9205" width="306.367" height="221.053" filterUnits="userSpaceOnUse" color-interpolation-filters="sRGB">
<feFlood flood-opacity="0" result="BackgroundImageFix"/>
<feColorMatrix in="SourceAlpha" type="matrix" values="0 0 0 0 0 0 0 0 0 0 0 0 0 0 0 0 0 0 127 0" result="hardAlpha"/>
<feOffset dx="5" dy="5"/>
<feGaussianBlur stdDeviation="5"/>
<feComposite in2="hardAlpha" operator="out"/>
<feColorMatrix type="matrix" values="0 0 0 0 0 0 0 0 0 0 0 0 0 0 0 0 0 0 0.25 0"/>
<feBlend mode="normal" in2="BackgroundImageFix" result="effect1_dropShadow_9_2"/>
<feBlend mode="normal" in="SourceGraphic" in2="effect1_dropShadow_9_2" result="shape"/>
</filter>
<filter id="filter1_d_9_2" x="181.5" y="36.9732" width="156" height="180" filterUnits="userSpaceOnUse" color-interpolation-filters="sRGB">
<feFlood flood-opacity="0" result="BackgroundImageFix"/>
<feColorMatrix in="SourceAlpha" type="matrix" values="0 0 0 0 0 0 0 0 0 0 0 0 0 0 0 0 0 0 127 0" result="hardAlpha"/>
<feOffset dx="5" dy="5"/>
<feGaussianBlur stdDeviation="5"/>
<feComposite in2="hardAlpha" operator="out"/>
<feColorMatrix type="matrix" values="0 0 0 0 0 0 0 0 0 0 0 0 0 0 0 0 0 0 0.25 0"/>
<feBlend mode="normal" in2="BackgroundImageFix" result="effect1_dropShadow_9_2"/>
<feBlend mode="normal" in="SourceGraphic" in2="effect1_dropShadow_9_2" result="shape"/>
</filter>
<filter id="filter2_d_9_2" x="280.936" y="0.0334625" width="83.7322" height="84.0818" filterUnits="userSpaceOnUse" color-interpolation-filters="sRGB">
<feFlood flood-opacity="0" result="BackgroundImageFix"/>
<feColorMatrix in="SourceAlpha" type="matrix" values="0 0 0 0 0 0 0 0 0 0 0 0 0 0 0 0 0 0 127 0" result="hardAlpha"/>
<feOffset dx="5" dy="5"/>
<feGaussianBlur stdDeviation="5"/>
<feComposite in2="hardAlpha" operator="out"/>
<feColorMatrix type="matrix" values="0 0 0 0 0 0 0 0 0 0 0 0 0 0 0 0 0 0 0.25 0"/>
<feBlend mode="normal" in2="BackgroundImageFix" result="effect1_dropShadow_9_2"/>
<feBlend mode="normal" in="SourceGraphic" in2="effect1_dropShadow_9_2" result="shape"/>
</filter>
</defs>
</svg>
