<svg width="512" height="512" viewBox="0 0 512 512" fill="none" xmlns="http://www.w3.org/2000/svg">
<mask id="mask0_13_2" style="mask-type:alpha" maskUnits="userSpaceOnUse" x="49" y="49" width="415" height="415">
<rect x="49" y="49" width="414.457" height="414.457" rx="91.3211" fill="#D9D9D9"/>
</mask>
<g mask="url(#mask0_13_2)">
<rect x="49" y="49" width="414.457" height="414.457" fill="url(#paint0_linear_13_2)"/>
<path opacity="0.5" d="M385.032 191.419C390.262 191.422 394.502 195.659 394.51 200.889L394.722 344.886C394.73 350.132 390.478 354.387 385.233 354.384L128.887 354.232C123.657 354.229 119.417 349.992 119.409 344.762L119.198 200.765C119.19 195.52 123.442 191.264 128.687 191.267L385.032 191.419Z" fill="url(#paint1_linear_13_2)"/>
<line x1="305.072" y1="246.27" x2="371.461" y2="246.27" stroke="white" stroke-width="18.9683" stroke-linecap="round"/>
<line x1="259.548" y1="284.207" x2="370.513" y2="284.207" stroke="white" stroke-width="18.9683" stroke-linecap="round"/>
<line x1="227.302" y1="322.143" x2="370.513" y2="322.143" stroke="white" stroke-width="18.9683" stroke-linecap="round"/>
<path d="M146.444 285.141C148.344 280.609 151.275 276.583 155.004 273.382L361.783 95.8764C365.094 93.0343 370.081 93.4142 372.924 96.725L386.115 112.092C388.957 115.403 388.577 120.391 385.266 123.233L178.487 300.738C174.759 303.939 170.335 306.226 165.568 307.418L136.83 314.602C135.568 314.918 134.487 313.658 134.99 312.458L146.444 285.141Z" fill="url(#paint2_linear_13_2)"/>
<rect x="50.7562" y="50.7562" width="410.945" height="410.945" rx="89.5649" stroke="black" stroke-opacity="0.05" stroke-width="3.51235"/>
</g>
<defs>
<linearGradient id="paint0_linear_13_2" x1="463.457" y1="463.457" x2="463.457" y2="49" gradientUnits="userSpaceOnUse">
<stop stop-color="#2C9D39"/>
<stop offset="1" stop-color="#A3EFAC"/>
</linearGradient>
<linearGradient id="paint1_linear_13_2" x1="62.3031" y1="37.2552" x2="62.3031" y2="414.167" gradientUnits="userSpaceOnUse">
<stop stop-color="white"/>
<stop offset="1" stop-color="white" stop-opacity="0.497897"/>
</linearGradient>
<linearGradient id="paint2_linear_13_2" x1="122.028" y1="301.689" x2="145.512" y2="329.046" gradientUnits="userSpaceOnUse">
<stop stop-color="white"/>
<stop offset="1" stop-color="white" stop-opacity="0.9"/>
</linearGradient>
</defs>
</svg>
